PathFileType	4	(X/Y/Z)	C:\Users\Basilio\Documents\Thesis Gigler\squatting_fais\c3dfiles\054\SLS_back_pre4\markers_experimental.trc
DataRate	CameraRate	NumFrames	NumMarkers	Units	OrigDataRate	OrigDataStartFrame	OrigNumFrames
200.000000	200.000000	4	61	mm	200.000000	1151	1535
Frame#	Time	FHD			LBHD			RBHD			C7			T10			CLAV			LSHO			LUUPA			LMUPA			LDUPA			LLEP			LMEP			LRAD			LUL			LRFIN			RSHO			RUPA1			RMUPA			RDUPA			RLEP			RMEP			RRAD			RUL			RUFIN			LASI			RASI			USACR			LSACR			RSACR			LTHI1			LTHI2			LTHI3			LTHI4			LLFC			LMFC			LTIB1			LTIB2			LTIB3			LTIB4			LLMAL			LMMAL			LHEE			LMT1			LMT2			LMT5			RTHI			RTHI2			RTHI3			RTHI4			RLFC			RMFC			RTIB1			RTIB2			RTIB3			RTIB4			RLMAL			RMMAL			RHEE			RMT1			RMT2			RMT5			
		X1	Y1	Z1	X2	Y2	Z2	X3	Y3	Z3	X4	Y4	Z4	X5	Y5	Z5	X6	Y6	Z6	X7	Y7	Z7	X8	Y8	Z8	X9	Y9	Z9	X10	Y10	Z10	X11	Y11	Z11	X12	Y12	Z12	X13	Y13	Z13	X14	Y14	Z14	X15	Y15	Z15	X16	Y16	Z16	X17	Y17	Z17	X18	Y18	Z18	X19	Y19	Z19	X20	Y20	Z20	X21	Y21	Z21	X22	Y22	Z22	X23	Y23	Z23	X24	Y24	Z24	X25	Y25	Z25	X26	Y26	Z26	X27	Y27	Z27	X28	Y28	Z28	X29	Y29	Z29	X30	Y30	Z30	X31	Y31	Z31	X32	Y32	Z32	X33	Y33	Z33	X34	Y34	Z34	X35	Y35	Z35	X36	Y36	Z36	X37	Y37	Z37	X38	Y38	Z38	X39	Y39	Z39	X40	Y40	Z40	X41	Y41	Z41	X42	Y42	Z42	X43	Y43	Z43	X44	Y44	Z44	X45	Y45	Z45	X46	Y46	Z46	X47	Y47	Z47	X48	Y48	Z48	X49	Y49	Z49	X50	Y50	Z50	X51	Y51	Z51	X52	Y52	Z52	X53	Y53	Z53	X54	Y54	Z54	X55	Y55	Z55	X56	Y56	Z56	X57	Y57	Z57	X58	Y58	Z58	X59	Y59	Z59	X60	Y60	Z60	X61	Y61	Z61	

1152	5.755	-97.89915466308597	1724.2763671875	-1060.19140625	-261.5410766601563	1674.946533203125	-1129.411254882813	-276.6127014160157	1671.783935546875	-989.6177978515627	-312.3900146484376	1520.680541992188	-1048.222778320313	-421.7938232421876	1214.873901367188	-1027.446899414063	-182.319808959961	1436.6474609375	-1061.474487304688	-246.212631225586	1516.03466796875	-1198.708374023438	-104.2069625854492	1399.89404296875	-1327.876220703125	-70.60357666015626	1432.312255859375	-1312.69580078125	-36.05118942260743	1390.40380859375	-1339.234985351563	23.29262351989746	1392.291748046875	-1335.648559570313	22.40316200256348	1324.196044921875	-1293.015502929688	266.5001220703126	1418.904418945313	-1221.625	293.8530883789063	1390.766357421875	-1289.700805664063	359.3882446289063	1445.125	-1228.390869140625	-231.319808959961	1513.682006835938	-918.4279785156252	-90.99416351318361	1390.088134765625	-784.2805175781252	-53.60378265380861	1417.5927734375	-796.3713378906252	-24.88429260253907	1368.882690429688	-773.240661621094	20.49159240722657	1358.926635742188	-774.6450805664065	14.47084426879883	1303.505126953125	-828.1568603515627	265.5926208496094	1429.255249023438	-907.7039184570315	280.9261779785157	1397.561767578125	-836.3740844726565	340.4372863769532	1466.79833984375	-902.6023559570315	-296.6910095214844	1004.116577148438	-1149.106811523438	-284.8822021484376	1009.083129882813	-901.9026489257815	-449.6071777343751	1134.62060546875	-1020.669738769531	-466.2727355957032	1105.584350585938	-1047.9287109375	-461.5074768066407	1105.300415039063	-990.415710449219	-352.4752807617188	774.8359375000002	-1221.607543945313	-298.4262084960938	709.3439331054689	-1213.323486328125	-253.9733886718751	726.6148071289064	-1205.248779296875	-308.9247131347657	652.8664550781251	-1193.24267578125	-260.6768188476563	511.7449035644532	-1162.553588867188	-234.8839721679688	525.5866088867189	-1023.978515625	-239.0658569335938	353.7749633789063	-1087.642456054688	-290.4426879882813	307.7477111816407	-1141.484741210938	-253.6996002197266	302.8627319335938	-1114.439086914063	-277.0255737304688	233.3129272460938	-1071.467407226563	-357.0977478027344	107.0823440551758	-1101.575439453125	-327.9242248535157	130.970443725586	-1009.698303222656	-427.3435363769532	100.1114730834961	-1042.86962890625	-217.1238250732422	54.88740921020509	-1019.330383300781	-208.4146423339844	55.90097427368165	-1068.422485351563	-260.7727355957032	39.85789871215821	-1119.963012695313	-336.1737670898438	725.2007446289064	-797.8010253906252	-286.7442626953126	679.2719726562501	-795.2154541015627	-254.1846313476563	684.3151245117189	-801.5772094726565	-302.1184387207032	597.2436523437501	-810.0393676757815	-314.2907104492188	548.2814941406251	-819.5473632812502	-255.1314392089844	527.2152099609376	-946.6318359375002	-380.7107543945313	465.6619567871095	-856.2908325195315	-472.7898864746095	517.3546142578126	-834.1564941406252	-467.2700500488282	474.4940185546876	-852.7593383789065	-506.3086242675782	458.4930419921876	-892.0928344726565	-688.3528442382814	488.781219482422	-909.3838500976565	-644.3097534179689	465.5942993164064	-993.1257934570315	-698.1699218750001	559.7360229492189	-963.4549560546877	-725.2683715820314	346.3910827636719	-1021.596496582031	-736.9412231445314	335.2591857910157	-975.376403808594	-769.736511230469	377.4057617187501	-931.266296386719	
1153	5.76	-98.59102630615237	1725.877197265625	-1060.109252929688	-262.0628356933594	1676.739868164063	-1129.2607421875	-277.0879211425782	1673.542114257813	-989.5529785156252	-313.0051879882813	1522.218994140625	-1047.976684570313	-421.7906188964845	1216.124877929688	-1027.16162109375	-182.6615753173828	1438.381103515625	-1061.29443359375	-246.5841369628907	1517.401123046875	-1198.437866210938	-104.5431060791016	1401.184204101563	-1327.665283203125	-70.9001922607422	1433.65576171875	-1312.515625	-36.31418991088868	1391.832397460938	-1339.078125	22.89682960510254	1393.73388671875	-1335.320190429688	22.22901916503907	1325.234008789063	-1292.389282226563	266.1284790039063	1420.053588867188	-1221.376586914063	293.4150695800782	1391.912109375	-1289.325927734375	359.0324096679688	1446.313842773438	-1227.943237304688	-231.8046112060547	1515.21240234375	-918.0896606445315	-91.55068969726564	1391.444213867188	-784.0754394531252	-54.32508087158205	1419.213500976563	-795.9104614257815	-25.30838012695313	1370.290405273438	-773.1412353515627	20.0258846282959	1360.322631835938	-774.484558105469	13.87611675262452	1304.835205078125	-827.9924316406252	264.9754028320313	1430.647338867188	-907.447692871094	280.1141357421876	1398.919555664063	-836.1834106445315	339.8618164062501	1468.103881835938	-902.284606933594	-296.1456298828126	1005.552307128906	-1148.85791015625	-284.3534545898438	1010.8046875	-901.5102539062502	-449.6046142578126	1136.039672851563	-1020.4267578125	-465.759979248047	1106.62841796875	-1047.61767578125	-461.2074279785157	1106.484985351563	-990.2043457031252	-352.9014587402344	775.967712402344	-1220.8896484375	-299.1625366210938	710.2103881835939	-1212.68798828125	-254.5588073730469	727.2012329101564	-1204.933471679688	-309.2312316894532	653.5243530273439	-1192.933715820313	-262.2445983886719	512.2842407226564	-1162.158081054688	-236.0450439453126	525.9659423828126	-1023.690979003906	-240.0376586914063	354.3861389160157	-1087.554931640625	-291.3205261230469	307.8430175781251	-1141.351806640625	-255.0013885498047	303.2359619140626	-1114.218017578125	-277.3344116210938	233.6487731933594	-1071.42626953125	-357.1679077148438	107.1256561279297	-1101.560546875	-327.9561462402344	130.9624633789063	-1009.677917480469	-427.5073242187501	100.2583465576172	-1042.796875	-217.1299896240235	54.86792755126955	-1019.310791015625	-208.126449584961	55.95757293701173	-1068.2158203125	-260.7648315429688	39.83773040771485	-1119.971069335938	-335.3135681152344	726.9815063476564	-797.3142700195315	-285.7205200195313	680.9141235351564	-794.7113037109377	-253.1136169433594	686.0085449218751	-801.0404052734377	-300.8023376464844	598.9269409179689	-809.4339599609377	-313.0015869140626	549.9166259765626	-819.0376586914065	-254.0006256103516	528.9138183593751	-945.9744873046877	-379.0112915039063	467.1708068847657	-855.8406372070315	-471.1875305175782	518.6985473632814	-833.7695922851565	-465.889129638672	476.0217895507814	-852.149841308594	-504.7402343750001	459.6817016601564	-891.4003906250002	-686.8698730468751	489.7678833007814	-908.879333496094	-642.9554443359376	466.8067321777345	-992.8960571289065	-696.7930297851564	560.9271240234376	-963.0615844726565	-723.8270263671876	347.0018310546876	-1020.818298339844	-735.1943359375001	336.1809082031251	-975.0046386718752	-768.427429199219	378.5256958007813	-930.3846435546877	
1154	5.765	-99.10560607910159	1727.56103515625	-1059.91357421875	-262.6320495605469	1678.391723632813	-1129.0390625	-277.5137939453126	1675.166381835938	-989.4056396484377	-313.6165771484376	1523.742431640625	-1047.841552734375	-421.6768493652345	1217.469604492188	-1027.154418945313	-182.9810180664063	1440.163330078125	-1061.067260742188	-247.1645965576172	1519.044555664063	-1198.400024414063	-105.0565872192383	1402.737670898438	-1327.367431640625	-71.24490356445314	1435.140869140625	-1312.296020507813	-36.95980072021485	1393.152221679688	-1338.350463867188	22.43595886230469	1394.985229492188	-1334.926147460938	21.54457664489746	1326.96337890625	-1292.391845703125	265.9444885253907	1421.333251953125	-1220.987060546875	293.8529357910157	1392.942504882813	-1289.048706054688	358.3218383789063	1447.548950195313	-1227.628784179688	-232.289047241211	1516.944458007813	-917.813415527344	-92.31548309326173	1392.952758789063	-783.7438964843752	-54.76382446289064	1420.501953125	-795.7406005859377	-25.91948509216309	1371.794677734375	-772.773864746094	19.53937339782715	1361.72607421875	-774.3397216796877	13.3871078491211	1306.314697265625	-827.9355468750002	266.7961730957032	1431.701416015625	-909.1867675781252	279.4818420410157	1400.139770507813	-835.923767089844	339.3448486328126	1469.38427734375	-902.0313720703127	-296.1093750000001	1006.943664550781	-1148.3701171875	-283.9385070800782	1012.501098632813	-901.2446899414065	-449.1150817871095	1137.066284179688	-1020.043640136719	-465.7384643554689	1107.953369140625	-1047.385375976563	-461.174285888672	1107.5517578125	-990.0249633789065	-353.0975341796876	776.9107055664065	-1220.781616210938	-299.0678405761719	710.7919921875001	-1212.539184570313	-254.9758911132813	727.9205322265626	-1204.519775390625	-310.3361511230469	654.3786621093751	-1192.4521484375	-263.8154602050782	512.9687500000001	-1161.739135742188	-237.4634552001954	526.4840087890626	-1023.207153320313	-241.0530090332032	354.8005676269532	-1087.259399414063	-291.9212646484376	308.3219909667969	-1141.184448242188	-255.5352630615235	303.7473754882813	-1114.10888671875	-277.6331176757813	234.0844421386719	-1071.474853515625	-357.1532592773438	107.1578598022461	-1101.5166015625	-328.0432128906251	131.0274810791016	-1009.656921386719	-427.3893127441407	100.1176834106446	-1042.874877929688	-217.0999145507813	54.92108154296876	-1019.372863769531	-208.4287261962891	55.98690795898439	-1068.419189453125	-260.7553100585938	39.81256484985352	-1119.948486328125	-334.3345947265626	728.5144653320314	-796.6611328125002	-284.8023071289063	682.5087890625001	-794.1423950195315	-252.2637481689454	687.7621459960939	-800.5708618164065	-299.9355773925782	600.6481323242189	-809.2324218750002	-311.6930236816407	551.5967407226564	-818.4826660156252	-252.786849975586	530.5580444335939	-945.3383789062502	-377.7236328125001	468.8014221191407	-855.2639160156252	-470.1580810546876	520.3380126953126	-833.1364746093752	-464.5333251953126	477.2598876953126	-851.738220214844	-503.6068725585939	461.1451721191407	-890.846130371094	-685.5579223632814	491.0556640625001	-908.440368652344	-641.3646850585939	467.8929138183595	-992.5445556640627	-695.6870117187501	561.8436279296876	-962.5623779296877	-722.1470336914064	348.3116455078126	-1020.424011230469	-733.3623657226564	337.1363830566407	-974.5426025390627	-766.7755737304689	379.4253845214844	-930.0347290039065	
1155	5.77	-99.63548278808597	1729.368896484375	-1059.765747070313	-263.0852661132813	1680.012817382813	-1128.859619140625	-278.0778198242188	1676.7763671875	-989.225280761719	-314.1997985839844	1525.368530273438	-1047.654174804688	-421.5731506347657	1218.723266601563	-1026.999145507813	-183.3988800048828	1441.812377929688	-1060.839599609375	-247.5233306884766	1520.39599609375	-1198.2177734375	-105.0120162963867	1403.977416992188	-1327.338134765625	-71.56890869140626	1436.478515625	-1312.055541992188	-37.25985336303712	1394.938598632813	-1338.40869140625	22.0520248413086	1396.31298828125	-1334.62451171875	21.09546852111817	1328.320190429688	-1292.120727539063	265.5166320800782	1422.545166015625	-1220.615844726563	292.3531494140626	1394.193115234375	-1288.51171875	357.9191894531251	1448.781616210938	-1227.220336914063	-232.8799285888672	1518.47412109375	-917.473327636719	-92.73143768310548	1394.26318359375	-783.6474609375002	-55.25429534912111	1421.941162109375	-795.5232543945315	-26.37113952636719	1373.030639648438	-772.5463867187502	18.89821243286133	1363.156494140625	-774.1663818359377	12.84115982055664	1307.750610351563	-827.836853027344	263.7656555175782	1433.264404296875	-906.9361572265627	279.0275878906251	1401.483032226563	-835.736511230469	338.8368225097657	1470.709228515625	-901.8709106445315	-295.6629333496094	1008.205444335938	-1148.102172851563	-283.3988952636719	1013.957824707031	-900.975524902344	-448.9914855957032	1138.37109375	-1019.86572265625	-465.2802734375001	1108.968017578125	-1047.104248046875	-460.707489013672	1109.02099609375	-989.9129028320315	-353.3127136230469	777.8757324218752	-1220.158935546875	-300.0102539062501	711.7961425781251	-1212.294189453125	-255.7694244384766	728.3635253906251	-1204.505981445313	-310.7498779296876	654.9956054687501	-1191.968017578125	-265.0046386718751	513.6713256835939	-1161.618774414063	-238.7849731445313	526.9426879882814	-1022.8544921875	-242.0289001464844	355.2432250976563	-1087.104614257813	-292.6766357421876	308.6318664550782	-1141.150634765625	-256.0522155761719	304.6269836425782	-1113.951416015625	-278.2120971679688	234.5031280517579	-1071.519775390625	-357.1128540039063	107.17041015625	-1101.486572265625	-328.1022644042969	131.0582733154297	-1009.634948730469	-427.4055175781251	100.1371383666992	-1042.862670898438	-217.1427764892579	54.86156463623048	-1019.350524902344	-208.4385528564454	55.96228027343751	-1068.398803710938	-260.7118835449219	39.87194824218751	-1119.94384765625	-333.0496215820313	730.1780395507814	-796.410583496094	-283.7955627441407	684.2850341796876	-793.5267333984377	-251.2271728515626	689.4663696289064	-799.8952636718752	-298.6782836914063	602.2962036132814	-808.2174072265627	-310.4950256347657	553.2136230468751	-817.886657714844	-251.4905548095704	532.1395874023439	-944.7310180664065	-376.3240051269532	470.1022338867189	-854.6472778320315	-468.8282165527345	521.6152343750001	-832.603942871094	-463.1174316406251	478.9646606445314	-851.036560058594	-502.0718383789064	462.4556579589845	-890.2335205078127	-684.2807617187501	492.1909790039064	-907.904968261719	-639.9077148437501	469.0543518066407	-992.0125732421877	-694.2203979492189	563.0551147460939	-962.352722167969	-720.2427978515626	349.5367736816407	-1019.907592773438	-732.3668823242189	338.2496337890626	-973.5018310546877	-765.3942871093751	380.6653442382813	-929.3532714843752	
